<svg xmlns="http://www.w3.org/2000/svg" width="281.947" height="63.984" viewBox="0 0 281.947 63.984">
  <g id="logo" transform="translate(-296.053 -55.016)">
    <ellipse id="Elipse_1" data-name="Elipse 1" cx="27.5" cy="23" rx="27.5" ry="23" transform="translate(298 64)" fill="#fff"/>
    <path id="spotify-logo" d="M29.765,0A29.765,29.765,0,1,0,59.529,29.765,29.764,29.764,0,0,0,29.765,0ZM42.718,43.2a2.034,2.034,0,0,1-2.784.73c-5.349-3.126-11.528-3.628-15.771-3.5a39.122,39.122,0,0,0-8.181,1.08A2.035,2.035,0,0,1,14.9,37.583a42.381,42.381,0,0,1,9.022-1.22,39.736,39.736,0,0,1,8.691.629,29.334,29.334,0,0,1,9.371,3.421A2.035,2.035,0,0,1,42.718,43.2ZM46.5,35.337a2.41,2.41,0,0,1-3.3.865c-6.336-3.7-13.655-4.3-18.681-4.145a46.351,46.351,0,0,0-9.69,1.28,2.411,2.411,0,0,1-1.278-4.649,50.189,50.189,0,0,1,10.686-1.445,47.076,47.076,0,0,1,10.3.745,34.752,34.752,0,0,1,11.1,4.052A2.411,2.411,0,0,1,46.5,35.337Zm2.326-7.146a2.943,2.943,0,0,1-1.489-.4c-15.062-8.8-34.6-3.57-34.8-3.515a2.957,2.957,0,1,1-1.571-5.7A61.556,61.556,0,0,1,24.079,16.8a57.754,57.754,0,0,1,12.628.914,42.622,42.622,0,0,1,13.616,4.97,2.958,2.958,0,0,1-1.495,5.511Z" transform="translate(296.053 55.016)" fill="#ea1d2c"/>
    <text id="Spotifood" transform="translate(366 107)" fill="#c9c9c9" font-size="48" font-family="Roboto-Bold, Roboto" font-weight="700"><tspan x="0" y="0">Spotifood</tspan></text>
  </g>
</svg>
