<svg xmlns="http://www.w3.org/2000/svg" width="570.759" height="570.759" viewBox="0 0 570.759 570.759">
  <path id="spotify" d="M285.38,0C127.769,0,0,127.769,0,285.38s127.769,285.38,285.38,285.38,285.38-127.769,285.38-285.38S442.991,0,285.38,0Zm124.2,414.164a19.506,19.506,0,0,1-26.7,7C331.6,391.2,272.358,386.38,231.678,387.617c-45.061,1.371-78.107,10.266-78.435,10.357A19.515,19.515,0,0,1,142.9,360.339c1.489-.41,37.049-10.068,86.5-11.7a380.983,380.983,0,0,1,83.332,6.033c33.139,6.286,63.368,17.321,89.85,32.8A19.514,19.514,0,0,1,409.581,414.164Zm36.281-75.352a23.106,23.106,0,0,1-31.622,8.295c-60.745-35.5-130.924-41.2-179.108-39.74-53.377,1.624-92.521,12.161-92.909,12.268a23.116,23.116,0,0,1-12.255-44.578c1.764-.486,43.885-11.928,102.46-13.859a451.363,451.363,0,0,1,98.71,7.146c39.254,7.447,75.061,20.517,106.429,38.849A23.113,23.113,0,0,1,445.862,338.812Zm22.3-68.513a28.221,28.221,0,0,1-14.281-3.878c-144.417-84.4-331.753-34.224-333.628-33.706a28.354,28.354,0,1,1-15.061-54.671c2.163-.6,53.83-14.63,125.677-17,42.325-1.393,83.064,1.554,121.078,8.765,48.15,9.134,92.072,25.166,130.547,47.652A28.357,28.357,0,0,1,468.165,270.3Z" fill="#7b7b7b" opacity="0.09"/>
</svg>
